# xmcd
#
# Track frame offsets: 
#        150
#        17132
#        34353
#        57562
#        91576
#        110434
#
# Disc length: 1797 seconds
#
# Revision: 0
# Processed by: cddbd v1.5.2PL0 Copyright (c) Steve Scherf et al.
# Submitted via: ExactAudioCopyFreeDBPlugin 1.0
#
DISCID=47070306
DTITLE=DeWolff - DeWollf (EP)
DYEAR=2008
DGENRE=Blues
TTITLE0=Fishing Night at Noon (single edit)
TTITLE1=Gold and Seaweed (single edit)
TTITLE2=Yellow Rat Magic Blues
TTITLE3=The Thrills that Come Along with the Landing of a Flying Sauce
TTITLE3=r
TTITLE4=Fishing Night at Noon (full version)
TTITLE5=Gold and Seaweed (full version)
EXTD=
EXTT0=
EXTT1=
EXTT2=
EXTT3=
EXTT4=
EXTT5=
PLAYORDER=
